<svg xmlns="http://www.w3.org/2000/svg" xmlns:xlink="http://www.w3.org/1999/xlink" version="1.1" id="Layer_1" x="0px" y="0px" width="100%" viewBox="0 0 528 384" enable-background="new 0 0 528 384" xml:space="preserve">
<path fill="#000000" opacity="1.000000" stroke="none" d=" M197.968536,280.669556   C198.083801,279.868896 198.602234,278.787903 198.459641,278.870758   C194.317673,281.277466 190.311646,276.517426 186.072266,278.865173   C188.362411,274.732239 193.608521,274.304016 196.161407,269.852264   C184.140717,267.515808 173.869614,271.320343 163.114166,277.951385   C164.060303,271.421021 167.152466,268.091705 170.919846,265.414185   C181.186768,258.117279 193.222137,256.350464 205.297409,254.695663   C228.988998,251.448929 253.147446,252.490891 276.568634,246.637787   C289.317139,243.451889 298.961182,236.966141 304.155060,224.438507   C305.877594,220.283768 307.932281,216.103607 311.608185,211.965179   C312.767303,218.317200 309.728882,223.223328 309.895111,228.701797   C315.603851,230.503601 321.370209,230.214737 327.128662,229.610657   C332.810669,229.014587 337.511566,225.506500 343.117493,223.721130   C340.368073,228.848953 338.425079,229.741058 317.374420,235.810822   C321.212799,238.824936 331.530060,240.011276 340.114899,238.792191   C347.975739,237.675903 354.981659,234.484970 362.141998,229.701767   C360.638550,234.113083 360.638550,234.113083 349.704071,240.260818   C350.803894,241.936020 353.000214,239.814194 354.193878,241.785263   C350.118225,245.162262 344.864746,244.351120 339.715637,245.629745   C343.284668,246.320557 346.485962,245.214905 349.514404,246.336823   C349.647949,248.268723 347.760925,247.506424 347.023102,248.428833   C351.467438,249.905563 355.570221,247.296631 359.944092,247.653687   C355.864716,251.464813 350.249969,250.910522 345.465790,252.812561   C346.051910,254.003296 347.802124,252.719574 348.419342,254.585724   C344.098541,257.404236 339.065125,255.649155 334.574371,256.455017   C338.386078,258.187317 342.927032,256.377838 346.820984,258.778015   C338.777344,261.760223 330.639893,259.262817 321.545624,258.754578   C326.602356,262.040558 332.271179,259.430511 336.800507,263.269470   C331.489899,265.153168 326.825653,263.466217 322.132629,263.187805   C323.350861,265.629120 328.854156,263.158752 327.813477,268.375214   C330.888153,270.344177 335.276672,268.618835 339.733643,271.455597   C331.456696,273.088318 324.322815,271.372070 317.051208,271.181671   C317.898071,273.456482 320.959106,271.835815 321.963379,275.091278   C317.003174,274.218079 312.479675,273.421783 307.354462,272.519562   C308.560577,273.476288 309.352844,274.104706 311.375092,275.708801   C306.775208,274.699585 304.110870,277.561981 300.604218,276.935577   C302.360168,277.656555 304.116089,278.377563 306.116364,279.198883   C302.776764,280.426239 301.941864,280.206635 296.311981,278.071716   C293.335052,276.942810 290.168915,274.104706 287.117920,278.028778   C287.992279,280.678680 291.603363,280.586731 292.237549,283.967041   C288.772614,283.568268 285.488037,283.190247 281.824402,282.768585   C283.240082,286.270142 286.122620,287.681671 288.522400,289.633484   C290.751160,291.446167 293.747192,292.480316 295.603607,296.304352   C285.136993,292.519592 276.258514,286.915405 266.032227,285.609558   C264.513092,287.591705 267.144318,289.271576 265.726074,291.327393   C263.217529,290.256653 262.616577,287.401764 260.831116,285.558441   C258.896271,288.757324 262.318939,292.121368 259.955170,295.606812   C257.184479,292.294769 257.157349,288.064850 254.532288,284.298950   C254.318039,288.916351 256.237488,293.053253 254.278137,297.680176   C250.957855,293.111603 253.002075,287.554871 249.818222,282.812744   C249.293243,286.551849 250.007736,289.891785 248.118774,293.110565   C245.848831,291.324005 247.337341,288.858490 246.286713,286.799194   C244.493927,289.462250 246.591782,293.756805 242.120575,295.652893   C242.120575,291.911194 242.120575,288.543915 242.120575,285.176605   C240.894180,288.611847 240.797043,292.320465 237.428680,294.740479   C235.599945,292.782898 237.598007,290.629120 236.422104,288.876892   C234.800079,290.973114 235.530640,294.243866 232.812500,295.873413   C230.944778,294.582489 233.167175,292.812042 232.130890,291.086731   C230.222458,293.673706 228.841949,293.278778 228.402054,290.100464   C226.955917,290.966461 225.850067,291.628723 224.833893,292.237244   C221.877579,290.168030 220.908707,287.690857 223.300323,283.350616   C219.203445,285.725861 217.776779,289.053314 214.367493,290.580688   C213.799179,287.394897 211.767578,287.931732 209.687332,289.235504   C208.568634,286.548584 211.760193,285.259918 210.951584,282.578552   C208.084869,284.962555 204.807465,283.113861 201.941055,284.267822   C201.257233,282.667969 202.517029,282.067902 202.633179,281.003845   C201.109390,279.895020 199.415436,283.135162 197.968536,280.669556  z"/>
<path fill="#000000" opacity="1.000000" stroke="none" d=" M194.755219,212.816437   C186.640793,218.378311 179.053497,224.126129 169.738251,226.830750   C166.510895,227.767792 163.284149,228.490280 159.916260,228.279297   C157.742065,228.143066 155.485687,227.970337 154.362869,225.662369   C153.157074,223.183823 154.391388,221.109848 155.793289,219.208572   C157.485367,216.913788 159.621002,215.015686 162.024704,213.504532   C193.996643,193.404526 225.114838,171.930573 258.224976,153.661774   C270.665558,146.797577 283.733948,141.346268 297.649994,138.540298   C305.415375,136.974487 313.462189,136.646469 321.454590,136.509674   C336.783386,136.247345 351.984436,137.571396 367.118805,139.846146   C368.686951,140.081863 370.202423,140.668152 371.656403,142.145645   C363.979004,142.470016 356.301300,142.786453 348.624298,143.120255   C323.884430,144.195953 299.556061,147.211624 276.974548,158.402466   C262.162872,165.742767 248.600494,175.097168 235.081558,184.508240   C221.701401,193.822723 208.391327,203.237930 194.755219,212.816437  z"/>
<path fill="#000000" opacity="1.000000" stroke="none" d=" M188.191422,57.122219   C191.121384,57.198040 193.615570,57.284676 196.105957,57.434742   C208.054123,58.154716 214.360031,68.507355 209.455261,79.473213   C206.878876,85.233383 202.711395,90.213593 201.098557,96.463936   C200.765091,97.756187 199.747665,98.455597 198.421127,97.944107   C196.831970,97.331360 196.893051,95.889595 197.224777,94.554993   C198.368347,89.954369 201.002518,86.068886 203.319092,82.028801   C204.222504,80.453270 205.204895,78.867928 205.765762,77.160416   C208.524704,68.760857 204.578842,62.609516 195.890228,61.289703   C181.815247,59.151691 171.293289,64.960945 164.282959,76.591225   C155.999802,90.333145 153.729355,105.608444 156.522354,121.347816   C158.586349,132.979050 164.902145,137.097809 176.682632,135.754913   C180.492737,135.320587 184.182220,134.635880 187.772842,133.101166   C194.432449,130.254715 198.761871,125.846397 199.409073,118.302208   C199.606110,116.005417 200.313370,113.740044 200.917542,111.495438   C201.249008,110.264030 202.115646,109.448853 203.532227,109.826477   C205.018250,110.222603 205.150391,111.470490 204.858612,112.637970   C202.361115,122.631477 201.128036,133.003296 196.332108,142.319412   C194.203583,146.454086 190.781906,149.374146 186.551437,151.244675   C185.166061,151.857239 183.243805,153.214508 182.273987,150.912979   C181.438553,148.930328 183.553955,148.538864 184.786758,147.896500   C189.963089,145.199341 192.940842,140.859848 194.736084,135.438141   C192.551819,134.162811 191.298416,135.784515 189.918488,136.365356   C181.902756,139.739334 173.706177,141.093765 165.036804,139.514877   C153.260864,137.370209 145.133286,130.892715 142.095245,119.285683   C136.795700,99.038414 143.303741,76.546616 161.698715,64.796562   C169.618347,59.737785 178.461426,57.635075 188.191422,57.122219  z"/>
<path fill="#000000" opacity="1.000000" stroke="none" d=" M347.846191,126.073029   C353.061646,123.504631 353.545380,117.536018 356.704651,114.132507   C358.347443,114.256493 359.001190,114.874435 359.006470,115.741364   C359.056213,123.904823 349.111389,132.247787 341.261383,130.683731   C334.739014,129.384186 330.975555,124.681953 332.133514,118.055435   C335.076294,101.214882 338.304565,84.421837 341.644379,67.654762   C342.450531,63.607773 343.986145,59.677486 346.886322,56.482624   C350.279022,52.745106 354.594269,51.982632 359.217682,52.929115   C363.764801,53.859978 365.431152,57.570526 366.478577,61.588928   C367.988831,67.383293 366.216187,72.847672 364.363861,78.172058   C361.749207,85.687820 357.806335,92.743332 356.641144,100.762146   C356.546295,101.414772 356.192810,102.029793 355.780762,103.146873   C352.617645,99.144020 353.697968,96.070038 354.686859,93.260384   C356.728058,87.460892 359.116638,81.784203 361.334076,76.046066   C363.122955,71.416901 363.282257,66.606812 362.519867,61.790455   C362.212280,59.847370 361.334198,57.973324 358.636353,56.863983   C356.596619,60.915218 356.648773,65.378380 355.928558,69.636345   C352.907837,87.495293 349.892181,105.355103 346.875305,123.214714   C346.695709,124.278000 345.836365,125.500198 347.846191,126.073029  z"/>
<path fill="#000000" opacity="1.000000" stroke="none" d=" M257.006073,131.019516   C249.536240,130.665085 243.390213,128.705048 240.249588,121.640015   C237.647308,115.786026 239.514954,109.581337 244.420456,107.398575   C248.918365,105.397171 254.449265,107.314682 256.410767,111.555511   C258.791504,116.702751 256.521942,121.614319 250.303787,124.771797   C254.881088,128.122070 261.035736,126.097466 262.848114,119.839546   C265.093079,112.088112 264.679596,104.150040 262.022339,96.069618   C257.632904,97.483604 254.529831,100.549385 250.475037,101.482506   C248.913681,101.841820 246.992538,102.975624 246.210907,100.690811   C245.438232,98.432182 247.548615,98.181870 249.059204,97.486984   C255.468597,94.538589 261.909363,91.601555 262.489288,83.111809   C262.575317,81.852478 263.398315,80.623688 263.968201,79.422455   C264.611755,78.065964 265.753540,77.507492 267.244598,77.673622   C268.709045,77.836769 269.145599,78.870667 269.232239,80.122574   C269.675659,86.528351 273.168945,91.666512 276.087860,97.088799   C285.419678,114.423790 277.103241,129.471786 257.006073,131.019516  z"/>
<path fill="#000000" opacity="1.000000" stroke="none" d=" M323.779907,121.683472   C315.278961,131.520279 303.886902,133.804123 293.025543,128.313614   C289.325714,126.443306 287.121765,123.521767 285.806274,119.795113   C279.180237,101.023552 293.547058,81.708534 313.339294,82.741470   C320.537262,83.117134 325.100220,86.546074 326.615417,92.718185   C327.904663,97.969696 324.796997,103.973030 319.254150,107.270103   C314.946808,109.832245 310.122833,110.255684 305.348938,110.839569   C301.724945,111.282829 298.948975,111.972069 299.340759,116.756912   C299.816162,122.563484 302.089844,126.120087 306.639679,126.540443   C312.650665,127.095795 316.682831,123.750816 320.092834,119.372009   C320.906219,118.327560 321.569550,117.156197 322.219025,115.996796   C322.964478,114.666122 323.636749,113.002556 325.535309,113.980553   C327.358337,114.919647 326.598236,116.549301 325.956207,117.909676   C325.389343,119.110855 324.650452,120.230881 323.779907,121.683472  M318.259277,102.839157   C322.948517,97.999573 323.506104,92.798149 319.707794,89.326393   C315.891144,85.837891 309.746948,87.009079 305.871094,92.213226   C302.782196,96.360733 301.222107,101.106621 300.793640,106.396294   C307.267365,107.471046 312.621094,106.203064 318.259277,102.839157  z"/>
<path fill="#000000" opacity="1.000000" stroke="none" d=" M215.679108,84.889389   C221.653580,82.654900 227.716537,84.193634 233.628021,83.203262   C236.401108,82.738678 235.897049,85.182930 235.549789,87.084328   C233.607193,97.721001 231.727966,108.369247 229.826431,119.013428   C229.478348,120.961784 228.864746,122.904861 229.670425,124.872948   C231.280518,125.992508 233.306244,123.427872 234.737762,125.527199   C233.387711,129.485062 229.217148,131.543930 224.068634,130.780380   C218.034790,129.885559 214.377151,126.576492 214.479599,121.186211   C214.567566,116.556358 215.423462,111.930489 216.097458,107.325943   C216.578339,104.040833 217.228638,100.772995 217.968262,97.535118   C218.996811,93.032433 220.583557,88.484901 215.679108,84.889389  z"/>
<path fill="#000000" opacity="1.000000" stroke="none" d=" M387.666443,89.743820   C385.489227,101.695648 383.412567,113.251678 381.407593,124.408623   C383.538177,126.508141 385.465546,123.679573 387.186829,125.554161   C387.970795,127.750443 386.136414,128.558258 384.572449,129.369400   C380.114624,131.681534 375.638489,131.777924 371.339386,128.987015   C366.959839,126.143898 366.227203,121.755447 366.982178,117.104477   C368.204010,109.577469 369.606415,102.073486 371.186981,94.613693   C371.954315,90.992172 372.507202,87.752151 367.945923,85.431389   C374.451447,82.504883 381.295105,84.706276 387.381775,82.870934   C388.948547,85.495270 387.977142,87.423737 387.666443,89.743820  z"/>
<path fill="#bb9f4e" opacity="1.000000" stroke="none" d=" M254.712158,246.941040   C233.576614,250.257355 212.501633,249.997116 191.865021,253.590286   C179.655426,255.716156 167.576904,258.646118 160.661636,270.705719   C160.556168,270.889648 160.060745,270.850006 159.436249,270.978912   C158.900345,267.260040 161.042023,264.725189 163.085480,262.243103   C170.320496,253.454971 180.322510,249.482010 190.890167,246.664825   C201.912430,243.726456 213.247986,243.901794 224.541580,243.334869   C239.466537,242.585693 254.378189,241.303879 269.074402,238.276993   C271.627197,237.751205 274.293854,237.778488 277.149902,237.529190   C274.943665,242.624191 271.509583,244.021927 254.712158,246.941040  z"/>
<path fill="#bb9f4e" opacity="1.000000" stroke="none" d=" M337.254089,174.934662   C344.686798,175.965622 345.111145,169.144150 348.710480,164.664993   C351.348816,171.307251 354.927551,175.972031 361.617004,176.403671   C361.595673,180.489441 357.714661,181.608948 357.301514,184.752716   C356.937561,187.522491 358.205353,190.351120 356.792114,193.961761   C350.911774,189.420853 345.159821,190.444107 338.544128,195.695526   C339.954803,187.503448 340.747986,180.877243 333.388611,177.868500   C333.717346,174.988449 335.501953,175.311798 337.254089,174.934662  z"/>
<path fill="#000000" opacity="1.000000" stroke="none" d=" M226.183380,74.188400   C221.809540,71.062767 220.606277,67.073463 222.399277,62.583710   C224.098511,58.328709 227.735901,56.984306 232.195694,57.476238   C236.444763,57.944927 238.819748,60.460545 239.671066,64.385979   C241.318436,71.981873 233.103287,77.774109 226.183380,74.188400  z"/>
<path fill="#000000" opacity="1.000000" stroke="none" d=" M380.690521,57.543888   C387.887421,57.205177 391.755432,59.869255 392.248474,65.160561   C392.722717,70.249886 389.553802,74.443520 384.701141,75.148560   C380.278442,75.791122 376.087708,73.291992 374.939819,69.327415   C373.383545,63.952370 375.043427,60.333122 380.690521,57.543888  z"/>
<path fill="#bb9f4e" opacity="1.000000" stroke="none" d=" M356.254333,213.780548   C358.653473,209.641403 361.206573,205.724823 359.584412,200.085815   C364.263794,203.034149 368.648224,202.824661 373.926270,200.258057   C373.144928,205.475632 373.955017,209.366928 376.979706,213.366562   C371.911926,214.424164 369.275970,217.635147 366.845490,222.854645   C364.308929,217.456589 361.516357,214.095581 356.254333,213.780548  z"/>
<path fill="#bb9f4e" opacity="1.000000" stroke="none" d=" M331.602478,211.416473   C330.233429,212.966507 328.927582,214.609924 327.699738,211.963882   C326.680359,209.767075 324.448669,209.244446 322.658722,207.533432   C323.954132,205.090714 325.923981,202.779510 325.613098,199.328308   C328.661194,199.854309 331.193024,201.055283 334.239532,200.634308   C334.117493,204.574005 338.090698,208.923370 331.602478,211.416473  z"/>
</svg>